# xmcd
#
# Track frame offsets: 
#        150
#        10527
#        23053
#        37674
#        50090
#        58575
#        70778
#        81405
#        91414
#        102604
#        114982
#        126657
#        134656
#        144141
#        154036
#        165419
#        175599
#        183958
#        192289
#
# Disc length: 2731 seconds
#
# Revision: 2
# Processed by: cddbd v1.5.2PL0 Copyright (c) Steve Scherf et al.
# Submitted via: ExactAudioCopyFreeDBPlugin 1.0
#
DISCID=f70aa913
DTITLE=Chuck Berry - The Ultimate Collection - Disc 2
DYEAR=2007
DGENRE=Blues
TTITLE0=Sweet Little Rock And Roller
TTITLE1=Joe Joe Gunn
TTITLE2=Merry Christmas Baby
TTITLE3=Run Rudolph Run
TTITLE4=Anthony Boy
TTITLE5=Little Queenie
TTITLE6=Almost Grown
TTITLE7=Memphis Tennessee
TTITLE8=Back In The USA
TTITLE9=Childhood Sweetheart
TTITLE10=Too Pooped To Pop
TTITLE11=Let It Rock
TTITLE12=Bye Bye Johnny
TTITLE13=Mad Lad
TTITLE14=Betty Jean
TTITLE15=Down The Road APiece
TTITLE16=Jaguar And Thunderbird
TTITLE17=I'm Talking About You
TTITLE18=Route 66
EXTD=
EXTT0=
EXTT1=
EXTT2=
EXTT3=
EXTT4=
EXTT5=
EXTT6=
EXTT7=
EXTT8=
EXTT9=
EXTT10=
EXTT11=
EXTT12=
EXTT13=
EXTT14=
EXTT15=
EXTT16=
EXTT17=
EXTT18=
PLAYORDER=
